<svg width="515" height="384" viewBox="0 0 515 384" fill="none" xmlns="http://www.w3.org/2000/svg">
<path d="M323 0C217.135 0 131 86.135 131 192C131 297.865 217.135 384 323 384C428.865 384 515 297.865 515 192C515 86.135 428.865 0 323 0ZM323 362.667C228.896 362.667 152.333 286.104 152.333 192C152.333 97.896 228.896 21.333 323 21.333C417.104 21.333 493.667 97.896 493.667 192C493.667 286.104 417.104 362.667 323 362.667Z" fill="black"/>
<path d="M343.281 197.198C343.722 195.491 344.333 193.843 344.333 192C344.333 184.208 339.924 177.671 333.666 173.947V74.667C333.666 68.771 328.895 64 322.999 64C317.103 64 312.332 68.771 312.332 74.667V173.947C306.074 177.671 301.665 184.209 301.665 192C301.665 203.76 311.238 213.333 322.998 213.333C324.84 213.333 326.489 212.722 328.196 212.281L379.456 263.541C381.539 265.624 384.269 266.666 386.998 266.666C389.727 266.666 392.456 265.624 394.54 263.541C398.707 259.374 398.707 252.624 394.54 248.458L343.281 197.198Z" fill="black"/>
<path d="M105.384 150H34V168H105.384V150Z" fill="black"/>
<path d="M105.384 217H34V235H105.384V217Z" fill="black"/>
<path d="M105 183.6H0V201.6H105V183.6Z" fill="black"/>
</svg>
