<svg width="496" height="400" viewBox="0 0 496 400" fill="none" xmlns="http://www.w3.org/2000/svg">
<path d="M496 0H340.688L256 84.688V400H240V0H84.688L0 84.688V400H16.88H45.5H69.5C69.5 400 164.578 400 225.5 400C299.309 400 414.5 400 414.5 400H425H432.5H441.888H496V0ZM336 27.312V80H283.312L336 27.312ZM80 27.312V80H27.312L80 27.312ZM16 384V96H96V16H224V384H56H16ZM480 384H409.888H272V96H352V16H480V384Z" fill="black"/>
<path d="M72 144C49.944 144 32 161.944 32 184V288H48V240H96V288H112V184C112 161.944 94.056 144 72 144ZM48 224V184C48 170.768 58.768 160 72 160C85.232 160 96 170.768 96 184V224H48Z" fill="black"/>
<path d="M208 184C208 161.944 190.056 144 168 144H128V288H168C190.056 288 208 270.056 208 248C208 234.928 201.696 223.304 191.976 216C201.696 208.696 208 197.072 208 184ZM192 248C192 261.232 181.232 272 168 272H144V224H168C181.232 224 192 234.768 192 248ZM168 208H144V160H168C181.232 160 192 170.768 192 184C192 197.232 181.232 208 168 208Z" fill="black"/>
<path d="M416 192V176H384V131.056L347.576 112.848L340.416 127.16L368 140.944V176H336V192H368V208H360C329.12 208 304 233.12 304 264C304 281.648 318.352 296 336 296H352V280H336C327.176 280 320 272.824 320 264C320 241.944 337.944 224 360 224H368V296H384V224H392C414.056 224 432 241.944 432 264C432 286.056 414.056 304 392 304V320C422.88 320 448 294.88 448 264C448 233.12 422.88 208 392 208H384V192H416Z" fill="black"/>
</svg>
